<mxfile host="65bd71144e">
    <diagram id="uiXwka0j9Snq28UgmEb9" name="Page-1">
        <mxGraphModel dx="670" dy="430" grid="1" gridSize="10" guides="1" tooltips="1" connect="1" arrows="1" fold="1" page="1" pageScale="1" pageWidth="850" pageHeight="1100" background="none" math="0" shadow="0">
            <root>
                <mxCell id="0"/>
                <mxCell id="1" parent="0"/>
                <mxCell id="16" style="edgeStyle=none;html=1;entryX=0.25;entryY=0;entryDx=0;entryDy=0;fontSize=16;startArrow=none;" parent="1" source="52" target="14" edge="1">
                    <mxGeometry relative="1" as="geometry"/>
                </mxCell>
                <mxCell id="3" value="" style="ellipse;fillColor=#000000;strokeColor=none;" parent="1" vertex="1">
                    <mxGeometry x="900" y="50" width="30" height="30" as="geometry"/>
                </mxCell>
                <mxCell id="5" value="" style="line;strokeWidth=1;direction=south;html=1;dashed=1;dashPattern=20 20;fillColor=#b1ddf0;strokeColor=#10739e;" parent="1" vertex="1">
                    <mxGeometry x="240" y="40" width="10" height="2710" as="geometry"/>
                </mxCell>
                <mxCell id="6" value="Model" style="text;align=center;fontSize=16;fontStyle=1;spacing=-1;" parent="1" vertex="1">
                    <mxGeometry x="80" y="20" width="60" height="20" as="geometry"/>
                </mxCell>
                <mxCell id="7" value="View" style="text;align=center;fontSize=16;fontStyle=1;spacing=-1;" parent="1" vertex="1">
                    <mxGeometry x="350" y="20" width="60" height="20" as="geometry"/>
                </mxCell>
                <mxCell id="8" value="" style="line;strokeWidth=1;direction=south;html=1;dashed=1;dashPattern=20 20;fillColor=#b1ddf0;strokeColor=#10739e;" parent="1" vertex="1">
                    <mxGeometry x="520" y="40" width="10" height="2720" as="geometry"/>
                </mxCell>
                <mxCell id="9" value="Controller" style="text;align=center;fontSize=16;fontStyle=1;spacing=-1;" parent="1" vertex="1">
                    <mxGeometry x="640" y="20" width="60" height="20" as="geometry"/>
                </mxCell>
                <mxCell id="11" value="" style="line;strokeWidth=1;direction=south;html=1;dashed=1;dashPattern=20 20;fillColor=#b1ddf0;strokeColor=#10739e;" parent="1" vertex="1">
                    <mxGeometry x="800" y="40" width="10" height="2690" as="geometry"/>
                </mxCell>
                <mxCell id="12" value="Main" style="text;align=center;fontSize=16;fontStyle=1;spacing=-1;" parent="1" vertex="1">
                    <mxGeometry x="960" y="20" width="60" height="20" as="geometry"/>
                </mxCell>
                <mxCell id="22" style="edgeStyle=none;html=1;entryX=0.5;entryY=0;entryDx=0;entryDy=0;fontSize=16;" parent="1" source="14" target="20" edge="1">
                    <mxGeometry relative="1" as="geometry">
                        <Array as="points">
                            <mxPoint x="100" y="230"/>
                        </Array>
                    </mxGeometry>
                </mxCell>
                <mxCell id="14" value="&lt;font style=&quot;font-size: 11px&quot;&gt;init&lt;/font&gt;" style="html=1;align=center;verticalAlign=top;rounded=1;absoluteArcSize=1;arcSize=10;dashed=0;fontSize=16;" parent="1" vertex="1">
                    <mxGeometry x="880" y="210" width="140" height="40" as="geometry"/>
                </mxCell>
                <mxCell id="20" value="&lt;font style=&quot;font-size: 11px&quot;&gt;Initiate Model&lt;/font&gt;" style="html=1;align=center;verticalAlign=top;rounded=1;absoluteArcSize=1;arcSize=10;dashed=0;fontSize=16;" parent="1" vertex="1">
                    <mxGeometry x="30" y="300" width="140" height="40" as="geometry"/>
                </mxCell>
                <mxCell id="23" value="&lt;font style=&quot;font-size: 11px&quot;&gt;loadJson()&lt;/font&gt;" style="html=1;align=center;verticalAlign=top;rounded=1;absoluteArcSize=1;arcSize=10;dashed=0;fontSize=16;" parent="1" vertex="1">
                    <mxGeometry x="30" y="360" width="140" height="40" as="geometry"/>
                </mxCell>
                <mxCell id="25" style="edgeStyle=none;html=1;entryX=1;entryY=0.5;entryDx=0;entryDy=0;fontSize=16;" parent="1" source="14" target="23" edge="1">
                    <mxGeometry relative="1" as="geometry">
                        <mxPoint x="880" y="230.0000000000001" as="sourcePoint"/>
                        <mxPoint x="100" y="300" as="targetPoint"/>
                        <Array as="points">
                            <mxPoint x="210" y="230"/>
                            <mxPoint x="210" y="380"/>
                        </Array>
                    </mxGeometry>
                </mxCell>
                <mxCell id="26" value="&lt;font style=&quot;font-size: 11px&quot;&gt;Initiate View&lt;/font&gt;" style="html=1;align=center;verticalAlign=top;rounded=1;absoluteArcSize=1;arcSize=10;dashed=0;fontSize=16;" parent="1" vertex="1">
                    <mxGeometry x="285" y="300" width="140" height="40" as="geometry"/>
                </mxCell>
                <mxCell id="58" style="edgeStyle=none;html=1;entryX=1;entryY=0.25;entryDx=0;entryDy=0;fontSize=11;fontColor=#050505;exitX=0;exitY=0.5;exitDx=0;exitDy=0;" parent="1" source="27" target="57" edge="1">
                    <mxGeometry relative="1" as="geometry">
                        <Array as="points">
                            <mxPoint x="460" y="320"/>
                            <mxPoint x="460" y="360"/>
                            <mxPoint x="250" y="360"/>
                            <mxPoint x="250" y="540"/>
                        </Array>
                    </mxGeometry>
                </mxCell>
                <mxCell id="27" value="&lt;font style=&quot;font-size: 11px&quot;&gt;Initiate Controller&lt;/font&gt;" style="html=1;align=center;verticalAlign=top;rounded=1;absoluteArcSize=1;arcSize=10;dashed=0;fontSize=16;" parent="1" vertex="1">
                    <mxGeometry x="560" y="300" width="140" height="40" as="geometry"/>
                </mxCell>
                <mxCell id="29" style="edgeStyle=none;html=1;entryX=0.5;entryY=0;entryDx=0;entryDy=0;fontSize=16;" parent="1" source="14" target="26" edge="1">
                    <mxGeometry relative="1" as="geometry">
                        <mxPoint x="880" y="230.0000000000001" as="sourcePoint"/>
                        <mxPoint x="100" y="300" as="targetPoint"/>
                        <Array as="points">
                            <mxPoint x="355" y="230"/>
                        </Array>
                    </mxGeometry>
                </mxCell>
                <mxCell id="32" value="&lt;font style=&quot;font-size: 11px&quot;&gt;populateStudents&lt;/font&gt;" style="html=1;align=center;verticalAlign=top;rounded=1;absoluteArcSize=1;arcSize=10;dashed=0;fontSize=16;" parent="1" vertex="1">
                    <mxGeometry x="30" y="460" width="140" height="40" as="geometry"/>
                </mxCell>
                <mxCell id="37" value="" style="edgeStyle=none;html=1;fontSize=11;entryX=0.5;entryY=0;entryDx=0;entryDy=0;" parent="1" source="34" edge="1" target="32">
                    <mxGeometry relative="1" as="geometry">
                        <mxPoint x="45" y="460" as="targetPoint"/>
                    </mxGeometry>
                </mxCell>
                <mxCell id="38" value="JSON data" style="edgeLabel;html=1;align=center;verticalAlign=middle;resizable=0;points=[];fontSize=11;" parent="37" vertex="1" connectable="0">
                    <mxGeometry x="-0.2216" y="-1" relative="1" as="geometry">
                        <mxPoint as="offset"/>
                    </mxGeometry>
                </mxCell>
                <mxCell id="34" value="" style="fillColor=#ffffff;strokeColor=#000000;fontSize=11;" parent="1" vertex="1">
                    <mxGeometry x="95" y="400" width="10" height="10" as="geometry"/>
                </mxCell>
                <mxCell id="39" style="edgeStyle=none;html=1;fontSize=16;exitX=0;exitY=0.5;exitDx=0;exitDy=0;" parent="1" source="40" edge="1">
                    <mxGeometry relative="1" as="geometry">
                        <mxPoint x="880" y="240" as="sourcePoint"/>
                        <mxPoint x="660" y="300" as="targetPoint"/>
                        <Array as="points">
                            <mxPoint x="660" y="245"/>
                        </Array>
                    </mxGeometry>
                </mxCell>
                <mxCell id="41" value="View, model" style="edgeLabel;html=1;align=center;verticalAlign=middle;resizable=0;points=[];fontSize=11;" parent="39" vertex="1" connectable="0">
                    <mxGeometry x="0.1616" y="1" relative="1" as="geometry">
                        <mxPoint as="offset"/>
                    </mxGeometry>
                </mxCell>
                <mxCell id="40" value="" style="fillColor=#ffffff;strokeColor=#000000;fontSize=11;" parent="1" vertex="1">
                    <mxGeometry x="870" y="240" width="10" height="10" as="geometry"/>
                </mxCell>
                <mxCell id="241" style="edgeStyle=none;html=1;entryX=0.5;entryY=0;entryDx=0;entryDy=0;" edge="1" parent="1" source="42" target="170">
                    <mxGeometry relative="1" as="geometry"/>
                </mxCell>
                <mxCell id="42" value="&lt;font style=&quot;font-size: 11px&quot;&gt;showStudents&lt;/font&gt;" style="html=1;align=center;verticalAlign=top;rounded=1;absoluteArcSize=1;arcSize=10;dashed=0;fontSize=16;" parent="1" vertex="1">
                    <mxGeometry x="320" y="680" width="140" height="40" as="geometry"/>
                </mxCell>
                <mxCell id="45" style="edgeStyle=none;html=1;entryX=1;entryY=0.25;entryDx=0;entryDy=0;fontSize=11;exitX=0.5;exitY=1;exitDx=0;exitDy=0;" parent="1" source="46" target="42" edge="1">
                    <mxGeometry relative="1" as="geometry">
                        <mxPoint x="695" y="375" as="sourcePoint"/>
                        <mxPoint x="560" y="435" as="targetPoint"/>
                        <Array as="points">
                            <mxPoint x="585" y="690"/>
                        </Array>
                    </mxGeometry>
                </mxCell>
                <mxCell id="49" value="studentsInDisplay" style="edgeLabel;html=1;align=left;verticalAlign=middle;resizable=0;points=[];fontSize=11;rotation=0;" parent="45" vertex="1" connectable="0">
                    <mxGeometry x="-0.5156" relative="1" as="geometry">
                        <mxPoint x="-45" y="30" as="offset"/>
                    </mxGeometry>
                </mxCell>
                <mxCell id="46" value="" style="fillColor=#ffffff;strokeColor=#000000;fontSize=11;" parent="1" vertex="1">
                    <mxGeometry x="580" y="340" width="10" height="10" as="geometry"/>
                </mxCell>
                <mxCell id="65" style="edgeStyle=none;html=1;entryX=0.5;entryY=0;entryDx=0;entryDy=0;fontSize=11;fontColor=#FFFFFF;exitX=1;exitY=0.5;exitDx=0;exitDy=0;exitPerimeter=0;" parent="1" source="51" target="206" edge="1">
                    <mxGeometry relative="1" as="geometry">
                        <mxPoint x="630" y="825" as="targetPoint"/>
                        <Array as="points">
                            <mxPoint x="110" y="840"/>
                        </Array>
                    </mxGeometry>
                </mxCell>
                <mxCell id="210" style="edgeStyle=none;html=1;entryX=0.5;entryY=0;entryDx=0;entryDy=0;exitX=0.5;exitY=1;exitDx=0;exitDy=0;" edge="1" parent="1" source="211" target="207">
                    <mxGeometry relative="1" as="geometry">
                        <Array as="points">
                            <mxPoint x="640" y="890"/>
                            <mxPoint x="390" y="890"/>
                        </Array>
                    </mxGeometry>
                </mxCell>
                <mxCell id="213" value="studentsInDisplay" style="edgeLabel;html=1;align=center;verticalAlign=middle;resizable=0;points=[];" vertex="1" connectable="0" parent="210">
                    <mxGeometry x="-0.1893" relative="1" as="geometry">
                        <mxPoint x="-98" y="70" as="offset"/>
                    </mxGeometry>
                </mxCell>
                <mxCell id="51" value="Click on &quot;filter by x&quot;" style="html=1;shape=mxgraph.infographic.ribbonSimple;notch1=20;notch2=0;align=center;verticalAlign=middle;fontSize=14;fontStyle=0;flipH=1;fillColor=#FFFFFF;fontColor=#050505;" parent="1" vertex="1">
                    <mxGeometry x="560" y="820" width="160" height="40" as="geometry"/>
                </mxCell>
                <mxCell id="52" value="DOMContentLoaded" style="html=1;shape=mxgraph.infographic.ribbonSimple;notch1=20;notch2=0;align=center;verticalAlign=middle;fontSize=14;fontStyle=0;flipH=1;fillColor=#FFFFFF;fontColor=#050505;" parent="1" vertex="1">
                    <mxGeometry x="840" y="120" width="180" height="40" as="geometry"/>
                </mxCell>
                <mxCell id="53" value="" style="edgeStyle=none;html=1;entryX=0.25;entryY=0;entryDx=0;entryDy=0;fontSize=16;endArrow=none;" parent="1" source="3" target="52" edge="1">
                    <mxGeometry relative="1" as="geometry">
                        <mxPoint x="915" y="80" as="sourcePoint"/>
                        <mxPoint x="915" y="210" as="targetPoint"/>
                    </mxGeometry>
                </mxCell>
                <mxCell id="57" value="&lt;font style=&quot;font-size: 11px&quot;&gt;sortStudents&lt;/font&gt;" style="html=1;align=center;verticalAlign=top;rounded=1;absoluteArcSize=1;arcSize=10;dashed=0;fontSize=16;" parent="1" vertex="1">
                    <mxGeometry x="30" y="530" width="140" height="40" as="geometry"/>
                </mxCell>
                <mxCell id="202" style="edgeStyle=none;html=1;entryX=0.5;entryY=0;entryDx=0;entryDy=0;" edge="1" parent="1" source="83" target="88">
                    <mxGeometry relative="1" as="geometry">
                        <Array as="points">
                            <mxPoint x="100" y="1160"/>
                        </Array>
                    </mxGeometry>
                </mxCell>
                <mxCell id="203" style="edgeStyle=none;html=1;entryX=0.5;entryY=0;entryDx=0;entryDy=0;exitX=0.5;exitY=1;exitDx=0;exitDy=0;" edge="1" parent="1" source="204" target="89">
                    <mxGeometry relative="1" as="geometry">
                        <Array as="points">
                            <mxPoint x="630" y="1230"/>
                            <mxPoint x="370" y="1230"/>
                        </Array>
                    </mxGeometry>
                </mxCell>
                <mxCell id="205" value="studentsInDisplay" style="edgeLabel;html=1;align=center;verticalAlign=middle;resizable=0;points=[];" vertex="1" connectable="0" parent="203">
                    <mxGeometry x="0.0201" y="1" relative="1" as="geometry">
                        <mxPoint x="-75" y="79" as="offset"/>
                    </mxGeometry>
                </mxCell>
                <mxCell id="83" value="Chooses sorting" style="html=1;shape=mxgraph.infographic.ribbonSimple;notch1=20;notch2=0;align=center;verticalAlign=middle;fontSize=14;fontStyle=0;flipH=1;fillColor=#FFFFFF;fontColor=#050505;" parent="1" vertex="1">
                    <mxGeometry x="550" y="1140" width="160" height="40" as="geometry"/>
                </mxCell>
                <mxCell id="88" value="&lt;font style=&quot;font-size: 11px&quot;&gt;sortStudents&lt;/font&gt;" style="html=1;align=center;verticalAlign=top;rounded=1;absoluteArcSize=1;arcSize=10;dashed=0;fontSize=16;" parent="1" vertex="1">
                    <mxGeometry x="30" y="1220" width="140" height="40" as="geometry"/>
                </mxCell>
                <mxCell id="242" style="edgeStyle=none;html=1;entryX=0.5;entryY=0;entryDx=0;entryDy=0;" edge="1" parent="1" source="89" target="172">
                    <mxGeometry relative="1" as="geometry"/>
                </mxCell>
                <mxCell id="89" value="&lt;span style=&quot;font-size: 11px&quot;&gt;showStudents&lt;/span&gt;" style="html=1;align=center;verticalAlign=top;rounded=1;absoluteArcSize=1;arcSize=10;dashed=0;fontSize=16;" parent="1" vertex="1">
                    <mxGeometry x="300" y="1370" width="140" height="40" as="geometry"/>
                </mxCell>
                <mxCell id="139" value="&quot;input&quot; on search" style="html=1;shape=mxgraph.infographic.ribbonSimple;notch1=20;notch2=0;align=center;verticalAlign=middle;fontSize=14;fontStyle=0;flipH=1;fillColor=#FFFFFF;fontColor=#050505;" parent="1" vertex="1">
                    <mxGeometry x="570" y="1485" width="160" height="40" as="geometry"/>
                </mxCell>
                <mxCell id="214" style="edgeStyle=none;html=1;entryX=0.5;entryY=0;entryDx=0;entryDy=0;startArrow=none;" edge="1" parent="1" source="163" target="162">
                    <mxGeometry relative="1" as="geometry"/>
                </mxCell>
                <mxCell id="220" value="matching students" style="edgeLabel;html=1;align=center;verticalAlign=middle;resizable=0;points=[];" vertex="1" connectable="0" parent="214">
                    <mxGeometry x="0.1805" y="3" relative="1" as="geometry">
                        <mxPoint x="-3" y="-4" as="offset"/>
                    </mxGeometry>
                </mxCell>
                <mxCell id="149" value="&lt;font style=&quot;font-size: 11px&quot;&gt;searchStudents&lt;/font&gt;" style="html=1;align=center;verticalAlign=top;rounded=1;absoluteArcSize=1;arcSize=10;dashed=0;fontSize=16;" parent="1" vertex="1">
                    <mxGeometry x="40" y="1560" width="140" height="40" as="geometry"/>
                </mxCell>
                <mxCell id="246" style="edgeStyle=none;html=1;entryX=0.5;entryY=0;entryDx=0;entryDy=0;" edge="1" parent="1" source="153" target="245">
                    <mxGeometry relative="1" as="geometry"/>
                </mxCell>
                <mxCell id="153" value="&lt;font style=&quot;font-size: 11px&quot;&gt;showStudents&lt;/font&gt;" style="html=1;align=center;verticalAlign=top;rounded=1;absoluteArcSize=1;arcSize=10;dashed=0;fontSize=16;" parent="1" vertex="1">
                    <mxGeometry x="330" y="1690" width="140" height="40" as="geometry"/>
                </mxCell>
                <mxCell id="154" style="edgeStyle=none;html=1;entryX=0.75;entryY=0;entryDx=0;entryDy=0;fontSize=11;fontColor=#FFFFFF;" parent="1" source="156" target="153" edge="1">
                    <mxGeometry relative="1" as="geometry">
                        <Array as="points">
                            <mxPoint x="645" y="1570"/>
                            <mxPoint x="435" y="1570"/>
                        </Array>
                    </mxGeometry>
                </mxCell>
                <mxCell id="155" value="students in display&lt;br&gt;" style="edgeLabel;html=1;align=left;verticalAlign=middle;resizable=0;points=[];fontSize=11;fontColor=#FFFFFF;" parent="154" vertex="1" connectable="0">
                    <mxGeometry x="0.5467" y="-2" relative="1" as="geometry">
                        <mxPoint x="-43" as="offset"/>
                    </mxGeometry>
                </mxCell>
                <mxCell id="156" value="" style="fillColor=#ffffff;strokeColor=#000000;fontSize=11;" parent="1" vertex="1">
                    <mxGeometry x="640" y="1525" width="10" height="10" as="geometry"/>
                </mxCell>
                <mxCell id="159" style="edgeStyle=none;html=1;entryX=0.25;entryY=0;entryDx=0;entryDy=0;fontSize=11;fontColor=#FFFFFF;" parent="1" source="161" target="149" edge="1">
                    <mxGeometry relative="1" as="geometry">
                        <Array as="points">
                            <mxPoint x="260" y="1505"/>
                            <mxPoint x="75" y="1505"/>
                        </Array>
                    </mxGeometry>
                </mxCell>
                <mxCell id="160" value="Search input" style="edgeLabel;html=1;align=center;verticalAlign=middle;resizable=0;points=[];fontSize=11;fontColor=#FFFFFF;" parent="159" vertex="1" connectable="0">
                    <mxGeometry x="0.7707" y="2" relative="1" as="geometry">
                        <mxPoint x="148" y="-2" as="offset"/>
                    </mxGeometry>
                </mxCell>
                <mxCell id="161" value="" style="fillColor=#ffffff;strokeColor=#000000;fontSize=11;" parent="1" vertex="1">
                    <mxGeometry x="560" y="1500" width="10" height="10" as="geometry"/>
                </mxCell>
                <mxCell id="162" value="&lt;font style=&quot;font-size: 11px&quot;&gt;updateVisibleStudents&lt;/font&gt;" style="html=1;align=center;verticalAlign=top;rounded=1;absoluteArcSize=1;arcSize=10;dashed=0;fontSize=16;" parent="1" vertex="1">
                    <mxGeometry x="40" y="1650" width="140" height="40" as="geometry"/>
                </mxCell>
                <mxCell id="172" value="" style="ellipse;html=1;shape=endState;fillColor=#000000;strokeColor=#000000;fontSize=11;fontColor=#FFFFFF;" parent="1" vertex="1">
                    <mxGeometry x="355" y="1450" width="30" height="30" as="geometry"/>
                </mxCell>
                <mxCell id="176" style="edgeStyle=none;html=1;entryX=0.5;entryY=0;entryDx=0;entryDy=0;fontSize=11;fontColor=#FFFFFF;startArrow=none;" parent="1" source="249" target="181" edge="1">
                    <mxGeometry relative="1" as="geometry">
                        <Array as="points">
                            <mxPoint x="420" y="1860"/>
                        </Array>
                    </mxGeometry>
                </mxCell>
                <mxCell id="181" value="&lt;font style=&quot;font-size: 11px&quot;&gt;openPopup&lt;/font&gt;" style="html=1;align=center;verticalAlign=top;rounded=1;absoluteArcSize=1;arcSize=10;dashed=0;fontSize=16;" parent="1" vertex="1">
                    <mxGeometry x="350" y="1900" width="140" height="40" as="geometry"/>
                </mxCell>
                <mxCell id="201" value="click on open popup" style="html=1;shape=mxgraph.infographic.ribbonSimple;notch1=20;notch2=0;align=center;verticalAlign=middle;fontSize=14;fontStyle=0;flipH=1;fillColor=#FFFFFF;fontColor=#050505;" parent="1" vertex="1">
                    <mxGeometry x="560" y="1840" width="180" height="40" as="geometry"/>
                </mxCell>
                <mxCell id="204" value="" style="fillColor=#ffffff;strokeColor=#000000;fontSize=11;" vertex="1" parent="1">
                    <mxGeometry x="625" y="1180" width="10" height="10" as="geometry"/>
                </mxCell>
                <mxCell id="206" value="&lt;font style=&quot;font-size: 11px&quot;&gt;filterStudents&lt;/font&gt;" style="html=1;align=center;verticalAlign=top;rounded=1;absoluteArcSize=1;arcSize=10;dashed=0;fontSize=16;" vertex="1" parent="1">
                    <mxGeometry x="40" y="880" width="140" height="40" as="geometry"/>
                </mxCell>
                <mxCell id="209" style="edgeStyle=none;html=1;entryX=0.5;entryY=0;entryDx=0;entryDy=0;" edge="1" parent="1" source="207" target="208">
                    <mxGeometry relative="1" as="geometry"/>
                </mxCell>
                <mxCell id="207" value="&lt;span style=&quot;font-size: 11px&quot;&gt;showStudents&lt;/span&gt;" style="html=1;align=center;verticalAlign=top;rounded=1;absoluteArcSize=1;arcSize=10;dashed=0;fontSize=16;" vertex="1" parent="1">
                    <mxGeometry x="320" y="1020" width="140" height="40" as="geometry"/>
                </mxCell>
                <mxCell id="208" value="" style="ellipse;html=1;shape=endState;fillColor=#000000;strokeColor=#000000;fontSize=11;fontColor=#FFFFFF;" vertex="1" parent="1">
                    <mxGeometry x="375" y="1100" width="30" height="30" as="geometry"/>
                </mxCell>
                <mxCell id="211" value="" style="fillColor=#ffffff;strokeColor=#000000;fontSize=11;" vertex="1" parent="1">
                    <mxGeometry x="635" y="860" width="10" height="10" as="geometry"/>
                </mxCell>
                <mxCell id="163" value="" style="fillColor=#ffffff;strokeColor=#000000;fontSize=11;" parent="1" vertex="1">
                    <mxGeometry x="105" y="1600" width="10" height="10" as="geometry"/>
                </mxCell>
                <mxCell id="219" value="" style="edgeStyle=none;html=1;entryX=0.5;entryY=0;entryDx=0;entryDy=0;endArrow=none;" edge="1" parent="1" source="149" target="163">
                    <mxGeometry relative="1" as="geometry">
                        <mxPoint x="110" y="1650" as="sourcePoint"/>
                        <mxPoint x="110" y="1770" as="targetPoint"/>
                    </mxGeometry>
                </mxCell>
                <mxCell id="222" value="" style="fillColor=#ffffff;strokeColor=#000000;fontSize=11;" vertex="1" parent="1">
                    <mxGeometry x="95" y="1260" width="10" height="10" as="geometry"/>
                </mxCell>
                <mxCell id="223" style="edgeStyle=none;html=1;entryX=0.5;entryY=0;entryDx=0;entryDy=0;startArrow=none;" edge="1" source="222" target="225" parent="1">
                    <mxGeometry relative="1" as="geometry"/>
                </mxCell>
                <mxCell id="224" value="matching students" style="edgeLabel;html=1;align=center;verticalAlign=middle;resizable=0;points=[];" vertex="1" connectable="0" parent="223">
                    <mxGeometry x="0.1805" y="3" relative="1" as="geometry">
                        <mxPoint as="offset"/>
                    </mxGeometry>
                </mxCell>
                <mxCell id="225" value="&lt;font style=&quot;font-size: 11px&quot;&gt;updateVisibleStudents&lt;/font&gt;" style="html=1;align=center;verticalAlign=top;rounded=1;absoluteArcSize=1;arcSize=10;dashed=0;fontSize=16;" vertex="1" parent="1">
                    <mxGeometry x="30" y="1330" width="140" height="40" as="geometry"/>
                </mxCell>
                <mxCell id="228" value="" style="fillColor=#ffffff;strokeColor=#000000;fontSize=11;" vertex="1" parent="1">
                    <mxGeometry x="105" y="920" width="10" height="10" as="geometry"/>
                </mxCell>
                <mxCell id="229" style="edgeStyle=none;html=1;entryX=0.5;entryY=0;entryDx=0;entryDy=0;startArrow=none;" edge="1" source="228" target="231" parent="1">
                    <mxGeometry relative="1" as="geometry"/>
                </mxCell>
                <mxCell id="230" value="matching students" style="edgeLabel;html=1;align=center;verticalAlign=middle;resizable=0;points=[];" vertex="1" connectable="0" parent="229">
                    <mxGeometry x="0.1805" y="3" relative="1" as="geometry">
                        <mxPoint x="-3" y="-9" as="offset"/>
                    </mxGeometry>
                </mxCell>
                <mxCell id="231" value="&lt;font style=&quot;font-size: 11px&quot;&gt;updateVisibleStudents&lt;/font&gt;" style="html=1;align=center;verticalAlign=top;rounded=1;absoluteArcSize=1;arcSize=10;dashed=0;fontSize=16;" vertex="1" parent="1">
                    <mxGeometry x="40" y="980" width="140" height="40" as="geometry"/>
                </mxCell>
                <mxCell id="236" value="&lt;font style=&quot;font-size: 11px&quot;&gt;updateVisibleStudents&lt;/font&gt;" style="html=1;align=center;verticalAlign=top;rounded=1;absoluteArcSize=1;arcSize=10;dashed=0;fontSize=16;" vertex="1" parent="1">
                    <mxGeometry x="30" y="640" width="140" height="40" as="geometry"/>
                </mxCell>
                <mxCell id="237" style="edgeStyle=none;html=1;entryX=0.5;entryY=0;entryDx=0;entryDy=0;startArrow=none;" edge="1" source="239" target="236" parent="1">
                    <mxGeometry relative="1" as="geometry"/>
                </mxCell>
                <mxCell id="238" value="matching students" style="edgeLabel;html=1;align=center;verticalAlign=middle;resizable=0;points=[];" vertex="1" connectable="0" parent="237">
                    <mxGeometry x="0.1805" y="3" relative="1" as="geometry">
                        <mxPoint x="-3" y="-5" as="offset"/>
                    </mxGeometry>
                </mxCell>
                <mxCell id="239" value="" style="fillColor=#ffffff;strokeColor=#000000;fontSize=11;" vertex="1" parent="1">
                    <mxGeometry x="95" y="570" width="10" height="10" as="geometry"/>
                </mxCell>
                <mxCell id="170" value="" style="ellipse;html=1;shape=endState;fillColor=#000000;strokeColor=#000000;fontSize=11;fontColor=#FFFFFF;" parent="1" vertex="1">
                    <mxGeometry x="375" y="750" width="30" height="30" as="geometry"/>
                </mxCell>
                <mxCell id="245" value="" style="ellipse;html=1;shape=endState;fillColor=#000000;strokeColor=#000000;fontSize=11;fontColor=#FFFFFF;" vertex="1" parent="1">
                    <mxGeometry x="385" y="1770" width="30" height="30" as="geometry"/>
                </mxCell>
                <mxCell id="249" value="" style="fillColor=#ffffff;strokeColor=#000000;fontSize=11;" vertex="1" parent="1">
                    <mxGeometry x="550" y="1855" width="10" height="10" as="geometry"/>
                </mxCell>
                <mxCell id="250" value="" style="edgeStyle=none;html=1;entryX=0.5;entryY=0;entryDx=0;entryDy=0;fontSize=11;fontColor=#FFFFFF;endArrow=none;" edge="1" parent="1" source="201" target="249">
                    <mxGeometry relative="1" as="geometry">
                        <mxPoint x="560" y="1860" as="sourcePoint"/>
                        <mxPoint x="420" y="1900" as="targetPoint"/>
                        <Array as="points"/>
                    </mxGeometry>
                </mxCell>
                <mxCell id="251" value="students, student id" style="edgeLabel;html=1;align=center;verticalAlign=middle;resizable=0;points=[];" vertex="1" connectable="0" parent="250">
                    <mxGeometry x="-0.3263" y="-1" relative="1" as="geometry">
                        <mxPoint x="-68" y="6" as="offset"/>
                    </mxGeometry>
                </mxCell>
            </root>
        </mxGraphModel>
    </diagram>
</mxfile>